# xmcd
#
# Track frame offsets:
#	150
#	17407
#	33022
#	50075
#	69992
#	85762
#	106142
#	120147
#	144357
#	163460
#	189655
#	203337
#	218167
#	243757
#	266350
#	286402
#	303592
#	319247
#
# Disc length: 4462 seconds
#
# Revision: 2
# Processed by: cddbd v1.5.2PL0 Copyright (c) Steve Scherf et al.
# Submitted via: audiograbber 1.83.01
#
DISCID=ed116c12
DTITLE=Various Artist - The Best of Country Music 2005 [CD2]
DYEAR=2005
DGENRE=Country
TTITLE0=Alan Jackson - It's Five O'Clock Somewhere
TTITLE1=Brad Paisley - Mud On The Tyres
TTITLE2=Sara Evans - Suds In The Bucket
TTITLE3=The Notorious Cherry Bombs - It's Hard To Kiss The Lips At Night That C
TTITLE3=hew Your Ass All Day Long
TTITLE4=Terri Clark - Girls Lie Too
TTITLE5=Lee Ann Womack - I May Hate Myself In The Morning
TTITLE6=Julie Roberts - Wake Up Older
TTITLE7=Kenny Chesney - Anything But Mine
TTITLE8=Big and Rich - Holy Water
TTITLE9=Martina McBride - God's Will
TTITLE10=Holly Williams - Sometimes
TTITLE11=George Canyon - I'll Never Do Better Than You
TTITLE12=Charlie Robison - El Cerrito Place
TTITLE13=Malibu Storm - Photograph
TTITLE14=(feat George Jones) Shooter Jennings - 4th Of July
TTITLE15=Loretta Lynn and Jack White - Portland, Oregan
TTITLE16=Kathleen Edwards - Back To Me
TTITLE17=BR-549 - That's What I Get
EXTD=YEAR: 2005
EXTT0=
EXTT1=
EXTT2=
EXTT3=
EXTT4=
EXTT5=
EXTT6=
EXTT7=
EXTT8=
EXTT9=
EXTT10=
EXTT11=
EXTT12=
EXTT13=
EXTT14=
EXTT15=
EXTT16=
EXTT17=
PLAYORDER=
